
<svg width="256px" height="231px" viewBox="0 0 256 231" version="1.1" xmlns="http://www.w3.org/2000/svg" xmlns:xlink="http://www.w3.org/1999/xlink">
    <g id="Page-1" stroke="none" stroke-width="1" fill="none" fill-rule="evenodd">
        <g id="E-Commerce-App" transform="translate(-147.000000, -560.000000)" fill="#8E8E93">
            <g id="Group-2" transform="translate(77.000000, 523.000000)">
                <path d="M324.686373,76.4539076 C313.036988,67.0398901 279.30843,55.1194299 277.774537,54.4936931 L228.105794,38.4937088 C225.34547,37.5533557 222.281101,37.5533557 219.520778,38.808325 C212.773699,41.6328798 198.059945,41.6328798 198.059945,41.6328798 C198.059945,41.6328798 183.342774,41.6328798 176.599112,38.808325 C173.838789,37.5533557 170.77442,37.5533557 167.706634,38.4937088 L118.037891,54.4936931 C116.503998,55.1194299 83.0863184,66.7287696 71.1260549,76.4539076 C69.899624,77.3942606 69.5921623,79.2784624 70.5145476,80.5334316 L97.8034892,129.162617 C98.4184128,130.417586 99.9488892,131.043323 101.482782,130.732203 C103.628182,130.10297 110.37526,128.851497 113.747091,130.732203 C114.973522,131.357939 115.585029,132.301788 116.199953,133.867878 L113.747091,264.695803 C113.747091,265.636156 114.054553,266.265389 114.66606,266.891126 C115.277567,267.520358 115.892491,267.831479 116.81146,267.831479 L279.004384,267.831479 C279.923353,267.831479 280.538277,267.516862 281.149784,266.891126 C281.764708,266.265389 282.068753,265.32154 282.068753,264.695803 L279.615892,133.867878 C279.923353,132.612909 280.842323,131.672556 282.068753,130.732203 C285.748046,128.53688 292.187662,129.79185 294.333062,130.732203 C295.559493,131.046819 297.093386,130.417586 298.012355,129.162617 L325.301297,80.5334316 C326.220266,78.9638461 325.912804,77.3942606 324.686373,76.4539076 L324.686373,76.4539076 Z M173.471529,45.4775878 C181.150562,48.6074785 196.505204,48.6074785 197.121169,48.6074785 C197.737135,48.6074785 213.091777,48.6074785 220.770809,45.1673871 C221.999318,44.8537009 223.227826,44.5400148 224.148352,44.8537009 C222.919843,54.2364022 217.085285,83.6427359 196.813187,93.0254372 C176.544511,83.6427359 170.70653,54.5500883 169.478022,44.8537009 C171.014513,44.8537009 172.243021,45.1673871 173.471529,45.4775878 L173.471529,45.4775878 Z M116.76061,125.354693 C111.907538,122.543665 105.537035,123.482994 102.201393,124.105734 L77.6318681,80.0825325 C87.9429575,72.901887 110.085946,64.4722824 117.669717,61.9743641 C120.400415,67.5929408 126.466756,82.5804508 128.893292,95.383152 C130.711504,106.310675 131.015666,120.049226 126.162594,127.229871 C124.949325,129.101571 123.431895,130.040899 121.613683,130.976749 C120.400415,128.165721 118.882985,126.603652 116.76061,125.354693 L116.76061,125.354693 Z M119.181319,260.620357 L121.638785,136.16251 C125.016945,135.222876 128.090489,133.025739 130.547956,129.892461 C138.228393,119.235125 135.770927,100.424978 134.542194,92.9009198 C132.084728,79.7355639 125.941062,64.9983296 123.175557,58.7282808 L164.031788,45.8738076 C165.56856,57.4742711 172.324881,88.5101391 195.978849,98.5422171 C196.286888,98.8565928 196.899543,98.8565928 197.207582,98.8565928 L197.515621,98.8565928 C197.82366,98.8565928 198.436315,98.8565928 198.744354,98.5422171 C222.398322,88.5101391 228.846604,57.4742711 230.691415,45.8738076 L271.852262,59.0391635 C269.086757,65.3092122 262.638475,80.0429535 260.485625,93.2118024 C259.256892,100.735861 256.799426,119.546007 264.479864,130.203343 C266.629291,133.336621 269.702835,135.533758 273.389034,136.473392 L275.538462,260.93124 L119.184741,260.93124 L119.184741,260.620357 L119.181319,260.620357 Z M293.989067,124.418843 C290.598177,123.796103 284.122163,122.856775 279.188711,125.667803 C277.031185,126.916762 275.488622,128.788461 274.564459,130.976749 C272.716132,130.35053 271.17357,129.10505 269.940207,127.229871 C264.697555,120.049226 265.006755,105.997565 267.164281,95.383152 C269.631007,82.5804508 275.797822,67.9060504 278.573747,61.9743641 C286.283125,64.7853919 308.483658,73.2149966 319.274725,80.0825325 L293.989067,124.418843 L293.989067,124.418843 Z" id="Shape"></path>
            </g>
        </g>
    </g>
</svg>