
<svg width="50px" height="50px" viewBox="0 0 115 125" version="1.1" xmlns="http://www.w3.org/2000/svg" xmlns:xlink="http://www.w3.org/1999/xlink">
    <g id="Page-1" stroke="none" stroke-width="1" fill="none" fill-rule="evenodd">
        <g id="Styleguide" transform="translate(-431.000000, -681.000000)" fill="#FFFFFF" fill-rule="nonzero">
            <g id="cart_icn" transform="translate(420.000000, 681.000000)">
                <path d="M85.75,28.3564815 C85.75,18.3333963 77.8839375,10.4166667 68.5,10.4166667 C59.4396466,10.4166667 51.7942919,17.7968284 51.2777994,27.3273626 L51.25,28.3564815 L51.25,41.6666667 L39.75,41.6666667 L39.75,28.3564815 C39.75,12.8108283 52.478839,0 68.5,0 C84.120632,0 96.6115003,12.1782936 97.2262809,27.1958427 L97.25,28.3564815 L97.25,41.6666667 L108.098131,41.6666667 C113.58178,41.6666667 118.169411,45.2856022 118.700042,50.0299447 L125.949251,114.844759 C126.518513,119.934509 122.233355,124.461711 116.378081,124.956548 C116.03551,124.985499 115.691526,125 115.347339,125 L21.6518989,125 C15.7690176,125 11,120.854488 11,115.740741 C11,115.441554 11.0166821,115.142542 11.0499876,114.844759 L18.2991966,50.0299447 C18.8298273,45.2856022 23.4174583,41.6666667 28.9011078,41.6666667 L85.75,41.6666667 L85.75,28.3564815 Z M107.381891,52.0833333 L29.6180328,52.0833333 L22.5,114.583333 L114.5,114.583333 L107.381891,52.0833333 Z"></path>
            </g>
        </g>
    </g>
</svg>
