<svg width="58px" height="53px" viewBox="0 0 58 53" version="1.1" xmlns="http://www.w3.org/2000/svg" xmlns:xlink="http://www.w3.org/1999/xlink">
    <g id="Page-1" stroke="none" stroke-width="1" fill="none" fill-rule="evenodd">
        <g id="E-Commerce-App" transform="translate(-1303.000000, -145.000000)">
            <g id="header_advanced_2" transform="translate(24.000000, 19.000000)">
                <g id="cart_icn" transform="translate(1279.000000, 126.000000)">
                    <rect id="bg" x="0" y="0" width="58" height="53"></rect>
                    <path d="M37.8705882,12.0231481 C37.8705882,7.77336001 34.6034564,4.41666667 30.7058824,4.41666667 C26.9427074,4.41666667 23.7672455,7.54585523 23.5527228,11.5868017 L23.5411765,12.0231481 L23.5411765,17.6666667 L18.7647059,17.6666667 L18.7647059,12.0231481 C18.7647059,5.43179119 24.0515689,0 30.7058824,0 C37.1938379,0 42.381861,5.1635965 42.6372072,11.5310373 L42.6470588,12.0231481 L42.6470588,17.6666667 L47.1527785,17.6666667 C49.4303864,17.6666667 51.3358372,19.2010953 51.5562322,21.2126965 L54.5671568,48.694178 C54.8035974,50.8522319 53.023777,52.7717655 50.5918167,52.9815763 C50.4495314,52.9938515 50.3066593,53 50.1637032,53 L11.2477452,53 C8.80431829,53 6.82352941,51.2423031 6.82352941,49.0740741 C6.82352941,48.9472188 6.83045825,48.820438 6.84429154,48.694178 L9.85521618,21.2126965 C10.0756111,19.2010953 11.981062,17.6666667 14.2586698,17.6666667 L37.8705882,17.6666667 L37.8705882,12.0231481 Z M46.8552919,22.0833333 L14.5564413,22.0833333 L11.6,48.5833333 L49.8117647,48.5833333 L46.8552919,22.0833333 Z" fill="#1B2437" fill-rule="nonzero"></path>
                </g>
            </g>
        </g>
    </g>
</svg>